<svg width="81" height="81" viewBox="0 0 81 81" fill="none" xmlns="http://www.w3.org/2000/svg">
<path d="M27.7188 8.85156V16.7812L23.3829 16.8203L19.0274 16.8789L18.9688 21.2734L18.9102 25.668L16.918 26.6055C14.3789 27.8164 11.6836 29.7109 9.5352 31.8203C7.62114 33.7148 5.35551 36.6836 5.60942 36.9375C5.70707 37.0352 7.0352 37.8359 8.57817 38.7344L11.3711 40.375L12.9532 39.4375C13.8321 38.9297 15.8829 37.7188 17.543 36.7422L20.5508 34.9844L22.1329 35.9219C28.3633 39.5742 29.5938 40.2773 29.7696 40.2773C29.8868 40.2773 31.9375 39.1055 34.3594 37.6797C36.7813 36.2539 38.8516 35.082 38.9493 35.082C39.0664 35.082 41.1758 36.2734 43.6367 37.7383L48.1289 40.375L48.7149 40.0234C49.0469 39.8477 50.375 39.0469 51.7032 38.2852L54.086 36.8789L53.2657 35.6875C52.0352 33.9297 48.7735 30.5898 46.8594 29.1641C45.9414 28.4805 44.125 27.3672 42.8164 26.7031L40.4141 25.4922V21.1367V16.7812H36.1172H31.8203L31.7813 8.91016L31.7227 1.05859L29.7305 1L27.7188 0.941406V8.85156Z" fill="white"/>
<path d="M55.8047 7.34769L55.7461 13.7539L52.4844 13.8125L49.2031 13.8516V17.3282V20.8047L48.1875 21.2344C47.1719 21.6641 43.9297 23.6172 43.9297 23.8125C43.9297 23.8711 44.5938 24.2618 45.3945 24.6914C50.668 27.4453 55.8633 33.0508 58.5586 38.8907C62.0547 46.4493 62.4258 55.2969 59.5547 63.0704C58.5781 65.7266 58.5391 65.4727 59.8672 65.3164C60.4922 65.2383 61.6836 65.043 62.4844 64.8868C70.668 63.2657 77.5235 56.9961 79.9453 48.9493C80.6875 46.4688 80.9024 45.0235 80.9024 42.2696C80.9024 35.961 78.5977 30.3555 74.2031 25.961C72.4453 24.2032 70.1602 22.5625 67.8164 21.3907L66.3906 20.6875V17.2696V13.8516L63.1289 13.8125L59.8477 13.7539L59.7891 7.34769L59.75 0.960968H57.7969H55.8438L55.8047 7.34769Z" fill="white"/>
<path d="M16 41.1172C13.5781 42.543 11.4492 43.6953 11.2735 43.6563C11.0977 43.6172 9.39845 42.6797 7.52345 41.5859C5.62892 40.4922 4.00783 39.6523 3.91017 39.7109C3.59767 39.9063 2.38673 43.207 1.85939 45.2969C0.687515 50.0625 0.687515 54.2422 1.83986 59.0664C2.25002 60.8438 3.26564 63.7734 3.6758 64.3984C3.79298 64.5938 4.71095 64.1445 7.4258 62.5625C9.39845 61.4102 11.0977 60.4727 11.2149 60.4727C11.3125 60.4727 13.4414 61.6836 15.9414 63.1289L20.4727 65.8047L25.0235 63.1289C27.5235 61.6641 29.6719 60.4727 29.7695 60.4727C29.8867 60.4727 32.0156 61.6641 34.5156 63.1289L39.0469 65.7852L43.5977 63.1289C46.0781 61.6641 48.2266 60.4727 48.3242 60.4727C48.4414 60.4727 50.1406 61.4102 52.0938 62.5625C54.0664 63.7344 55.707 64.6328 55.7266 64.5938C55.7656 64.5742 56.1172 63.7344 56.4883 62.7578C59.2422 55.8438 59.086 47.4844 56.0977 40.7461C55.8242 40.1406 55.5313 39.6328 55.4531 39.6328C55.375 39.6328 53.793 40.5117 51.957 41.5859C50.1211 42.6797 48.4805 43.5977 48.3242 43.6758C48.1485 43.7344 46.1563 42.6797 43.5977 41.1758C41.1563 39.75 39.0664 38.5977 38.9297 38.5977C38.8125 38.5977 36.7227 39.75 34.2813 41.1758C31.625 42.7383 29.7305 43.7148 29.5352 43.6563C29.3789 43.5977 27.3477 42.4258 25.043 41.0781C22.7383 39.7305 20.7461 38.5977 20.6289 38.5586C20.4922 38.5195 18.4219 39.6719 16 41.1172ZM7.40627 52.0352V53.5H6.13673H4.8672V52.0352V50.5703H6.13673H7.40627V52.0352ZM17.3672 52.0352V53.5H14.8281H12.2891V52.0352V50.5703H14.8281H17.3672V52.0352ZM27.3281 52.0352V53.5H24.7891H22.25V52.0352V50.5703H24.7891H27.3281V52.0352ZM37.25 52.0742L37.3086 53.5H34.75H32.211V52.0352V50.5508L34.711 50.6094L37.1914 50.668L37.25 52.0742ZM47.0547 52.0352V53.5H44.6133H42.1719V52.0352V50.5703H44.6133H47.0547V52.0352ZM54.6719 52.0352V53.5H53.4024H52.1328V52.0352V50.5703H53.4024H54.6719V52.0352Z" fill="#FFE800"/>
<path d="M8.28523 65.5118C6.78132 66.4102 5.47273 67.1914 5.35554 67.2305C5.25788 67.2696 5.58991 67.8946 6.09773 68.5977C10.6094 74.9063 16.6446 78.8711 24.2813 80.4922C26.8594 81.0391 31.9766 81.0977 34.6915 80.5899C40.5118 79.5157 45.9415 76.6641 50.0821 72.5039C51.9376 70.6094 54.1641 67.7188 54.0469 67.3477C54.0079 67.2305 52.6993 66.3907 51.1563 65.4727C49.086 64.2618 48.2462 63.8711 48.0313 64.0078C45.961 65.2774 39.2227 69.125 39.0469 69.125C38.9102 69.125 36.9571 68.0313 34.6719 66.7227C32.4063 65.3946 30.3555 64.2032 30.1212 64.086C29.7501 63.8907 29.1641 64.1641 25.1993 66.4883C22.7188 67.9336 20.5899 69.125 20.4727 69.125C20.336 69.125 18.2852 67.9727 15.8829 66.586C13.5001 65.1797 11.4102 64.0078 11.2735 63.9688C11.1368 63.9102 9.78913 64.6133 8.28523 65.5118Z" fill="white"/>
</svg>
