<svg width="100" height="88" viewBox="0 0 100 88" fill="none" xmlns="http://www.w3.org/2000/svg">
<path d="M65.625 1.1875C64.6093 2.20313 64.7656 2.75 66.6211 4.66407C68.2812 6.36328 68.8672 6.65625 69.8047 6.30469C70.3906 6.08985 70.8789 5.13282 70.7617 4.46875C70.7031 4.21485 69.9414 3.29688 69.082 2.4375C67.1289 0.503909 66.5429 0.289065 65.625 1.1875Z" fill="white"/>
<path d="M74.2773 2.4571C72.207 4.52741 72.0508 4.9571 73.0469 5.95319C73.5742 6.461 73.75 6.53913 74.375 6.44147C74.9609 6.34382 75.4297 5.99225 76.7187 4.68366C78.1055 3.25788 78.3203 2.94538 78.3203 2.37897C78.3008 1.63678 78.0469 1.2071 77.4023 0.875065C76.5234 0.406315 76.1523 0.582097 74.2773 2.4571Z" fill="white"/>
<path d="M68.8281 8.21875C68.5937 8.25781 67.6562 9.05859 66.7187 9.99609C65.332 11.4414 65.0391 11.832 65.0391 12.3398C65.0391 13.2187 65.7812 13.9219 66.7187 13.9219C67.3437 13.9219 67.6172 13.7461 68.9453 12.4375C69.7851 11.6172 70.5859 10.6992 70.7226 10.3672C71.1914 9.23437 70.0976 8.00391 68.8281 8.21875Z" fill="white"/>
<path d="M73.4766 8.37501C72.7149 8.68751 72.4024 9.29298 72.5391 10.0938C72.6368 10.5625 73.1251 11.1875 74.297 12.3203C75.9571 13.9414 76.4454 14.1758 77.4415 13.8047C77.8126 13.6484 78.3204 12.7305 78.3204 12.1445C78.3204 11.6172 75.1563 8.33595 74.5118 8.21876C74.2579 8.16016 73.7891 8.23829 73.4766 8.37501Z" fill="white"/>
<path d="M92.4608 9.25403C91.4257 9.547 89.9804 10.6407 89.3163 11.6368C87.7733 13.9415 88.1444 17.1447 90.1757 19.0197C91.4061 20.1525 92.5194 20.6017 94.16 20.6017C96.4647 20.6017 98.4179 19.3712 99.453 17.2618C100.117 15.9142 100.078 13.6095 99.3749 12.2423C98.0858 9.78137 95.0975 8.49231 92.4608 9.25403ZM95.5272 12.8087C96.3085 13.3361 96.8163 14.547 96.6015 15.3868C96.5233 15.6798 96.1718 16.2267 95.8007 16.5978C95.2343 17.1642 95.0194 17.2423 94.1796 17.2423C92.9882 17.2423 92.1093 16.6173 91.8163 15.5236C91.1718 13.2579 93.5741 11.5001 95.5272 12.8087Z" fill="white"/>
<path d="M7.67591 10.7969C6.77747 11.168 6.60169 11.7735 6.67982 14.2149C6.73841 16.3438 6.77747 16.5196 7.20716 16.8711C7.91028 17.4375 9.0431 17.3594 9.55091 16.7344C9.90247 16.2852 9.96106 15.9336 9.96106 14C9.96106 11.9883 9.922 11.7539 9.53138 11.3047C9.02357 10.7383 8.30091 10.543 7.67591 10.7969Z" fill="white"/>
<path d="M48.6327 15.2695C43.6717 19.0391 39.9217 24.9961 38.7303 31.0508C38.3397 33.1211 38.2811 38.0039 38.6522 39.8789C39.0428 41.8906 39.8045 44.3516 40.5467 45.9336L41.2303 47.418L41.8553 46.1875C43.3592 43.2383 45.5077 41.0898 48.3592 39.6836L49.9217 38.9023L50.8006 39.2344C53.7694 40.3867 56.5819 43.082 58.203 46.2852L58.7694 47.418L59.453 45.9336C62.0311 40.3867 62.3631 33.3945 60.3124 27.6328C58.9256 23.668 56.7772 20.3281 53.7499 17.3984C52.1874 15.8945 50.2538 14.3125 49.9608 14.3125C49.9217 14.3125 49.3358 14.7422 48.6327 15.2695Z" fill="white"/>
<path d="M0.976562 17.5743C-0.3125 18.2384 -0.3125 19.7618 0.976562 20.4259C1.54297 20.7188 2.03125 20.7774 3.69141 20.7188C5.625 20.6602 5.72266 20.6212 6.17187 20.1134C6.77734 19.4102 6.77734 18.5899 6.17187 17.8868C5.72266 17.379 5.625 17.3399 3.69141 17.2813C2.03125 17.2227 1.54297 17.2813 0.976562 17.5743Z" fill="white"/>
<path d="M11.0157 17.5157C9.60947 18.1407 9.74619 20.0743 11.2306 20.5626C11.6798 20.7188 12.6563 20.7774 13.7892 20.7188C15.3712 20.6602 15.6837 20.5821 16.1134 20.1719C16.797 19.5274 16.797 18.4532 16.0938 17.8086C15.6446 17.3985 15.4103 17.3399 13.6134 17.3008C12.2267 17.2618 11.4454 17.3204 11.0157 17.5157Z" fill="white"/>
<path d="M7.20703 21.129C6.75781 21.4805 6.73828 21.6172 6.73828 23.961C6.73828 26.2266 6.77734 26.4415 7.16797 26.8516C7.8125 27.4961 8.90625 27.4375 9.49219 26.7344C9.92188 26.2461 9.96094 26.0313 9.96094 24.0001C9.96094 22.0665 9.90234 21.7149 9.55078 21.2657C9.04297 20.6407 7.91016 20.5626 7.20703 21.129Z" fill="white"/>
<path d="M21.289 27.7305C19.453 27.8282 17.6171 28.1993 17.4999 28.4727C17.4608 28.6094 17.3046 29.7813 17.1679 31.0899C16.7577 34.9962 17.4022 39.5079 18.9061 43.2383C19.5702 44.918 19.2382 44.8204 22.9491 44.293C26.914 43.7266 31.914 44.1563 35.4296 45.3673C36.0741 45.5821 36.621 45.7188 36.6601 45.6798C36.7186 45.6407 36.5233 44.879 36.2499 44.0001C35.1952 40.6993 34.8241 36.4415 35.2147 32.3594L35.3515 30.7774L33.9452 30.1329C29.9999 28.3751 25.3515 27.4962 21.289 27.7305Z" fill="white"/>
<path d="M75.6836 27.711C72.0704 28.0235 69.375 28.6876 66.4258 29.9766L64.6094 30.7774L64.7266 31.6758C65.293 36.1094 64.9219 40.4454 63.6524 44.3516C63.418 45.0352 63.2813 45.6212 63.3203 45.6798C63.3789 45.7188 63.9258 45.5821 64.5703 45.3673C68.086 44.1563 73.086 43.7266 77.0508 44.293C80.7618 44.8204 80.4297 44.918 81.0938 43.2383C82.5586 39.5665 83.2227 35.0352 82.8321 31.2852C82.5196 28.0626 82.5977 28.2384 81.0938 28.004C79.5508 27.7696 76.7774 27.6134 75.6836 27.711Z" fill="white"/>
<path d="M48.9257 43.1016C45.8398 45.1328 43.8671 48.4531 43.4765 52.2227C43.2421 54.3516 43.4179 54.8008 44.6874 55.582C47.3632 57.2422 49.8241 60.2891 50.7812 63.1211C51.0546 63.8828 51.3476 64.5078 51.4452 64.5078C51.5429 64.5078 52.246 63.8633 53.0077 63.082C55.5273 60.5234 56.4452 58.0039 56.4843 53.668C56.5038 51.3828 56.4452 50.9727 55.957 49.4883C55.039 46.7734 53.3593 44.5859 51.0937 43.1211C50.5077 42.75 49.9999 42.4375 49.9609 42.457C49.9218 42.457 49.4726 42.75 48.9257 43.1016Z" fill="#007E62"/>
<path d="M22.6562 47.6329C18.0664 48.3751 13.1055 50.7774 9.66797 53.922C8.41797 55.0743 6.5625 57.1446 5.82031 58.2188L5.25391 59.0391L6.32812 60.4649C8.63281 63.5509 12.5977 66.7149 16.0937 68.3165C17.8906 69.1368 20.2344 69.8594 22.4609 70.2696C24.3555 70.6212 29.4336 70.6993 29.7656 70.3673C29.9023 70.2305 29.8828 70.1719 29.7266 70.1719C29.3359 70.1719 26.7578 67.5938 25.9375 66.3829C24.2969 63.9805 23.2812 60.8555 23.418 58.6095C23.4375 58.1407 24.6484 56.8516 26.0156 55.7774C27.4414 54.7032 29.9805 53.4923 31.7578 53.0626C33.5156 52.6329 36.7969 52.6329 38.5351 53.0626C39.2773 53.2384 39.9609 53.3751 40.0586 53.3751C40.1758 53.3751 40.2344 52.9063 40.1953 52.2618L40.1367 51.129L37.9883 50.0548C34.3359 48.1993 31.582 47.5157 27.3437 47.3985C25.4102 47.3595 23.9258 47.4181 22.6562 47.6329Z" fill="white"/>
<path d="M70.0195 47.5351C67.0898 47.9062 63.8086 49 61.1914 50.4453L59.7656 51.246V52.3007C59.7656 52.8867 59.8438 53.375 59.9414 53.375C60.0586 53.375 60.7227 53.2382 61.4648 53.0625C63.3594 52.5937 66.6602 52.6328 68.5742 53.1406C70.9961 53.7851 73.3594 55.0937 75.2734 56.8906C76.543 58.0625 76.7383 58.5507 76.5234 60.0742C76.0352 63.6679 73.9648 67.3007 71.0742 69.5859C70.5469 69.996 70.1953 70.3867 70.3125 70.4648C70.7031 70.7187 75.7813 70.582 77.5391 70.2695C83.8867 69.1757 89.8633 65.5429 93.5938 60.5429L94.7266 59L94.1602 58.1796C92.8125 56.2265 90.1563 53.6093 87.8516 51.9687C82.832 48.3554 76.3086 46.7539 70.0195 47.5351Z" fill="white"/>
<path d="M33.4766 56.0898C31.4258 56.4219 28.9258 57.5547 27.5 58.8437L26.6797 59.5664L26.9336 60.6797C27.7734 64.4883 31.1523 67.9453 35.293 69.293L36.3281 69.625L37.2461 68.8047C39.5313 66.8125 42.3828 65.6016 45.7617 65.2305C47.0898 65.0937 47.8516 64.918 47.8516 64.7812C47.8516 64.2539 46.2305 61.4023 45.4102 60.4648C42.793 57.4961 37.3242 55.4844 33.4766 56.0898Z" fill="#007E62"/>
<path d="M63.0469 56.1094C62.5196 56.1876 61.5625 56.461 60.8789 56.6758L59.6289 57.1055L59.375 58.2188C58.6133 61.6563 56.3281 65.0938 53.418 67.1836C52.8321 67.5938 52.8321 67.6133 53.2227 67.9258C54.0235 68.5704 56.4063 69.6055 57.8125 69.8985C60.3906 70.4454 63.8477 69.8985 66.7969 68.4727C69.7266 67.0665 72.3242 63.8047 73.0469 60.6407C73.3399 59.3907 73.2227 59.2149 71.2696 57.9454C68.9258 56.4219 65.5274 55.6602 63.0469 56.1094Z" fill="#007E62"/>
<path d="M44.6289 68.7266C41.7578 69.3516 39.4922 70.8555 37.2852 73.6289C35.2148 76.2266 34.375 78.5703 34.375 81.6953C34.375 83.6289 34.5312 84.4492 35.1953 86.1289C35.5664 87.1055 35.625 87.1446 36.4648 87.2813C37.5195 87.4375 39.375 87.2617 40.8203 86.8516C43.3984 86.1094 46.2891 83.961 47.5391 81.8516L48.0469 80.9727L47.6562 80.0742C46.2109 76.8125 46.0938 71.9883 47.3633 68.7461C47.4805 68.4727 47.3828 68.4141 46.7578 68.4336C46.3281 68.4336 45.3906 68.5703 44.6289 68.7266Z" fill="#007E62"/>
<path d="M50.2149 70.7188C49.8438 71.832 49.7266 75.0547 50 76.461C50.4688 78.8633 52.3438 82.1445 54.3164 84.0586C56.6602 86.3242 60.6641 87.711 63.5547 87.2813C64.375 87.1446 64.4336 87.1055 64.8047 86.1289C65.4688 84.4492 65.625 83.6289 65.625 81.6953C65.625 78.8438 64.8242 76.3438 63.2227 74.2539L62.5586 73.4141L60.0391 73.375C58.1055 73.3555 57.1875 73.2578 56.0938 72.9258C54.4141 72.4375 52.6172 71.5586 51.3477 70.6406L50.4492 69.9961L50.2149 70.7188Z" fill="#007E62"/>
</svg>
