<svg width="101" height="100" viewBox="0 0 101 100" fill="none" xmlns="http://www.w3.org/2000/svg">
<path d="M48.872 7.91014L47.3618 10.9375H44.2824H41.1833L43.4978 13.2422L45.8123 15.5664L44.6158 18.5742C43.9489 20.2344 43.2232 22.0117 43.0271 22.5195C42.8113 23.0469 42.7132 23.418 42.7917 23.3789C42.8898 23.3203 44.655 22.2656 46.7341 21.0156L50.5 18.7695L54.2855 21.0156C56.345 22.2656 58.1102 23.3203 58.2083 23.3789C58.2868 23.418 58.1887 23.0469 57.9729 22.5195C57.7768 22.0117 57.0511 20.2344 56.3842 18.5742L55.1878 15.5664L57.5022 13.2422L59.8167 10.9375H56.7176H53.6382L52.128 7.91014C51.2846 6.24999 50.5588 4.8828 50.5 4.8828C50.4412 4.8828 49.7154 6.24999 48.872 7.91014Z" fill="#DA0F0F"/>
<path d="M49.9116 22.1094C47.1068 27.1875 42.0464 32.0313 36.7114 34.7852L34.3577 35.9961L35.2992 36.3672C41.3403 38.7305 49.8724 39.5898 56.9138 38.5742C60.1698 38.0859 66.6032 36.3672 66.5836 35.9766C66.5836 35.8984 65.9755 35.5664 65.2498 35.2539C59.7971 32.832 54.0894 27.5391 51.0885 22.1094C50.8335 21.6602 50.5589 21.2891 50.5001 21.2891C50.4412 21.2891 50.1666 21.6602 49.9116 22.1094Z" fill="white"/>
<path d="M39.2219 43.1836C35.5541 46.875 30.5918 50.6445 26.924 52.5391C26.1786 52.9102 25.5902 53.2812 25.5902 53.3594C25.5902 53.5352 28.4931 55.2539 30.4937 56.25C34.3969 58.2031 39.4181 59.7656 44.0274 60.4883C47.1656 60.957 53.8344 60.957 56.9726 60.4883C61.6408 59.7461 66.5639 58.2227 70.5259 56.25C72.5658 55.2344 75.4098 53.5352 75.4098 53.3398C75.4098 53.2617 75.0764 53.0469 74.6841 52.8516C72.6442 51.8945 68.2899 48.9844 65.897 47.0117C65.2497 46.4648 63.6218 44.9414 62.2684 43.6328C59.8559 41.2695 59.797 41.2305 59.1302 41.3672L58.4437 41.5234L58.3848 43.5937L58.326 45.6445L58.934 45.8984C60.2678 46.4453 61.4839 48.418 61.4839 50.0391C61.4839 51.9141 59.8951 54.0234 58.1299 54.4922C57.1099 54.7656 55.482 54.6484 54.6778 54.2383C53.2264 53.4766 52.0691 51.6211 52.0691 50.0391C52.0691 48.418 53.2852 46.4453 54.6189 45.8984L55.2074 45.6641V43.8672V42.0898H50.6569C47.2637 42.0703 45.518 41.9922 43.8509 41.7187C42.6348 41.543 41.5364 41.3281 41.3991 41.2891C41.2814 41.25 40.3007 42.0898 39.2219 43.1836Z" fill="white"/>
<path d="M30.2976 61.6601C27.2574 64.2969 22.9619 67.3242 19.1372 69.5312C17.725 70.332 17.3916 70.6055 17.5681 70.8203C17.6858 70.957 18.588 71.6797 19.5687 72.4219C37.9667 86.2304 62.9549 86.25 81.3725 72.4805C82.3728 71.7383 83.2946 70.9961 83.4123 70.8398C83.5888 70.625 83.1377 70.2734 80.941 68.9844C77.6262 67.0117 73.9387 64.3945 71.1928 62.0898L69.1137 60.332L67.6034 60.918C63.7787 62.3828 58.934 63.4766 54.5209 63.8867C52.0887 64.1016 47.0283 64.0234 45.0669 63.75L44.2235 63.6133V65.5664V67.5391L44.8119 67.7734C46.1457 68.3203 47.3618 70.293 47.3618 71.914C47.3618 73.789 45.773 75.8984 44.0078 76.3672C42.9878 76.6406 41.3599 76.5234 40.5557 76.1133C39.1043 75.3515 37.947 73.4961 37.947 71.914C37.947 70.293 39.1631 68.3203 40.4969 67.7734L41.0853 67.5391V65.3516V63.1641L38.8885 62.6172C37.6724 62.3047 35.5934 61.6797 34.2792 61.2109C32.9651 60.7422 31.8667 60.3516 31.8275 60.3711C31.7882 60.3711 31.1017 60.957 30.2976 61.6601Z" fill="white"/>
<path d="M45.3022 86.4258C45.2238 86.9727 44.4196 94.8438 44.4196 95.1758C44.4196 95.2539 47.1656 95.3125 50.5 95.3125C53.854 95.3125 56.5803 95.2539 56.5803 95.1758C56.5803 94.8438 55.7761 86.9727 55.6977 86.4258L55.5996 85.8398H50.5H45.4003L45.3022 86.4258Z" fill="white"/>
</svg>
